<svg xmlns="http://www.w3.org/2000/svg" viewBox="0 0 24 24" width="24" height="24" fill="none" stroke="currentColor" stroke-width="2" stroke-linecap="round" stroke-linejoin="round"><circle cx="12" cy="12" r="3"/><path d="M19.4 15a1.7 1.7 0 0 0 .34 1.88l.06.06-2.83 2.83-.06-.06a1.7 1.7 0 0 0-1.88-.34 1.7 1.7 0 0 0-1.03 1.56V21h-4v-.09A1.7 1.7 0 0 0 9 19.36a1.7 1.7 0 0 0-1.88.34l-.06.06-2.83-2.83.06-.06A1.7 1.7 0 0 0 4.6 15a1.7 1.7 0 0 0-1.55-1.03H3v-4h.09A1.7 1.7 0 0 0 4.64 9a1.7 1.7 0 0 0-.34-1.88l-.06-.06 2.83-2.83.06.06A1.7 1.7 0 0 0 9 4.6a1.7 1.7 0 0 0 1-1.55V3h4v.09A1.7 1.7 0 0 0 15 4.64a1.7 1.7 0 0 0 1.88-.34l.06-.06 2.83 2.83-.06.06A1.7 1.7 0 0 0 19.4 9a1.7 1.7 0 0 0 1.55 1.03H21v4h-.09A1.7 1.7 0 0 0 19.4 15z"/></svg>
